<?xml version="1.0" standalone="no"?>
<!DOCTYPE svg PUBLIC "-//W3C//DTD SVG 20010904//EN"
 "http://www.w3.org/TR/2001/REC-SVG-20010904/DTD/svg10.dtd">
<svg version="1.0" xmlns="http://www.w3.org/2000/svg"
 width="360.000000pt" height="360.000000pt" viewBox="0 0 360.000000 360.000000"
 preserveAspectRatio="xMidYMid meet">
<metadata>
Created by potrace 1.11, written by Peter Selinger 2001-2013
</metadata>
<g transform="translate(0.000000,360.000000) scale(0.100000,-0.100000)"
fill="#000000" stroke="none">
<path d="M1377 2803 c-2 -1 -21 -5 -43 -7 -33 -3 -91 -13 -199 -32 -30 -5
-103 -25 -135 -36 -8 -3 -37 -14 -65 -23 -175 -60 -328 -181 -405 -320 -48
-85 -60 -140 -56 -254 2 -94 6 -114 34 -174 28 -61 138 -195 150 -183 2 3 21
-6 42 -19 21 -13 41 -21 44 -18 3 4 6 0 6 -7 0 -7 3 -11 6 -7 3 3 27 -1 52 -8
54 -15 144 -27 382 -50 107 -11 210 -35 277 -65 76 -35 149 -106 155 -152 13
-87 -64 -218 -193 -323 -23 -19 -118 -78 -129 -80 -3 -1 -21 -8 -41 -17 -43
-19 -131 -44 -179 -52 -19 -3 -48 -9 -65 -12 -16 -3 -86 -7 -155 -8 l-125 -1
-13 -40 c-19 -58 -2 -112 41 -130 26 -10 141 -27 192 -27 31 -1 162 14 207 23
29 6 64 13 78 15 13 3 38 11 55 19 35 15 56 22 69 23 5 0 12 4 15 9 3 4 23 17
45 28 56 29 165 123 208 180 79 104 118 211 123 340 7 154 -35 268 -135 366
-33 32 -67 59 -75 59 -8 0 -15 4 -15 9 0 9 -36 25 -133 62 -57 21 -158 43
-292 64 -189 30 -227 39 -320 76 -16 7 -32 13 -35 13 -17 4 -102 71 -119 95
l-20 28 28 44 c53 83 159 152 312 203 103 34 132 41 275 60 23 3 70 8 105 11
35 3 87 8 114 11 28 3 82 7 120 9 127 7 143 17 170 108 24 80 20 114 -16 148
-17 16 -36 29 -43 30 -6 0 -22 3 -36 5 -32 5 -259 12 -263 7z"/>
<path d="M2447 2803 c-4 -3 -48 -7 -99 -9 -105 -4 -167 -9 -218 -19 -19 -3
-46 -8 -60 -9 -81 -10 -141 -29 -151 -49 -17 -31 -14 -93 6 -123 17 -27 17
-27 114 -20 114 7 390 8 446 1 22 -3 58 -7 80 -10 22 -2 60 -9 85 -15 25 -7
53 -13 64 -15 10 -3 25 -10 34 -17 8 -7 17 -12 19 -10 2 1 25 -9 51 -22 57
-29 154 -123 172 -166 12 -28 11 -33 -11 -56 -47 -51 -179 -104 -512 -208
-108 -34 -251 -104 -308 -152 -97 -81 -144 -177 -184 -376 -29 -143 -22 -697
9 -772 7 -17 21 -38 30 -46 16 -12 21 -12 44 0 45 26 49 61 46 370 -4 417 8
472 128 565 42 33 191 115 238 130 3 1 18 7 33 13 15 7 39 15 53 18 13 3 27
10 30 15 3 5 12 9 20 9 47 0 303 120 379 178 63 47 121 124 139 182 21 71 14
203 -14 270 -34 77 -72 131 -131 184 -45 41 -153 103 -190 110 -8 1 -32 8 -54
14 -64 18 -105 24 -186 26 -41 2 -80 6 -86 9 -6 4 -13 4 -16 0z"/>
</g>
</svg>
